<svg xmlns="http://www.w3.org/2000/svg" width="59.2" height="81.661" viewBox="0 0 59.2 81.661"><defs><style>.a{fill:#40b4e0;}</style></defs><g transform="translate(-756.267 -1700.834)"><g transform="translate(756.267 1700.834)"><path class="a" d="M785.535,1782.5a3.257,3.257,0,0,1-2.268-.771,223.59,223.59,0,0,1-19.534-15.288,3.359,3.359,0,0,1-.268-.241c-7.2-7.59-7.2-16.8-7.2-41.4v-8.665a4.746,4.746,0,0,1,2.455-3.825l25.332-11.041a3.39,3.39,0,0,1,3.4.048l25.447,10.938a4.054,4.054,0,0,1,2.566,3.879v8.665c0,24.645,0,33.864-7.933,41.469a172.93,172.93,0,0,1-19.733,15.456A3.25,3.25,0,0,1,785.535,1782.5Zm-.461-3.816v0Zm-24.612-62.672c.051,0-.093.2-.124.31l.018,8.482c0,23.413,0,32.177,6.078,38.587a224.33,224.33,0,0,0,19.1,14.938,169.464,169.464,0,0,0,19.215-15.056c6.626-6.352,6.626-15.1,6.626-38.469v-8.665l-25.654-11.113-.024-.015-25.239,11Z" transform="translate(-756.267 -1700.834)"/></g><g transform="translate(768.916 1722.708)"><path class="a" d="M785.826,1739.631a2.54,2.54,0,0,1-1.346-.338l-7.734-5.716-7.738,5.382a1.628,1.628,0,0,1-2.355,0,2.081,2.081,0,0,1-.672-2.355l3.027-9.084-7.737-5.382a2.076,2.076,0,0,1-.672-2.353,1.718,1.718,0,0,1,1.681-1.346h9.755l3.027-9.08c.675-1.684,3.364-1.684,3.7,0l3.027,9.08h9.755a2.271,2.271,0,0,1,2.018,1.346,2.227,2.227,0,0,1-.675,2.353l-7.734,5.719,3.027,9.083a2.227,2.227,0,0,1-.675,2.352,14.56,14.56,0,0,0-1.68.338" transform="translate(-760.467 -1708.097)"/></g></g></svg>