<svg xmlns="http://www.w3.org/2000/svg" width="103.643" height="55.368" viewBox="0 0 103.643 55.368"><defs><style>.a{fill:#fff;}</style></defs><g transform="translate(-0.332 0.019)"><path class="a" d="M3.875,332.82c0-2,.556-3.208,2.989-3.208S9.9,330.822,9.9,332.82v3.956a.783.783,0,0,0,.9.876h1.75a.784.784,0,0,0,.9-.876V332.82c0-3.956-1.452-6.123-6.575-6.123S.332,328.864.332,332.82c0,4.373.9,6.123,2.818,7.955l4.441,4.542c1.964,2.039,2.3,3.165,2.3,5.83,0,2-.6,3.206-3.031,3.206s-2.989-1.208-2.989-3.206v-3.956a.812.812,0,0,0-.9-.917H1.229a.814.814,0,0,0-.9.917v3.956c0,3.956,1.409,6.123,6.532,6.123s6.575-2.167,6.575-6.123c0-4.373-.9-6.081-2.818-7.955l-4.439-4.542c-1.963-2-2.307-3.123-2.307-5.83m18.751-3.208c2.433,0,2.987,1.21,2.987,3.208v18.327c0,2-.554,3.206-2.987,3.206s-2.989-1.208-2.989-3.206V332.82c0-2,.554-3.208,2.989-3.208m0-2.915c-5.123,0-6.575,2.167-6.575,6.123v18.327c0,3.956,1.452,6.123,6.575,6.123S29.2,355.1,29.2,351.147V332.82c0-3.956-1.45-6.123-6.573-6.123m12.729,6.123c0-2,.554-3.208,2.989-3.208s3.03,1.21,3.03,3.208v3.956a.785.785,0,0,0,.9.876h1.75a.785.785,0,0,0,.9-.876V332.82c0-3.956-1.452-6.123-6.575-6.123s-6.532,2.167-6.532,6.123c0,4.373.9,6.123,2.818,7.955l4.439,4.542c1.964,2.039,2.3,3.165,2.3,5.83,0,2-.6,3.206-3.03,3.206s-2.989-1.208-2.989-3.206v-3.956a.813.813,0,0,0-.9-.917h-1.75a.812.812,0,0,0-.9.917v3.956c0,3.956,1.409,6.123,6.532,6.123s6.575-2.167,6.575-6.123c0-4.373-.9-6.081-2.818-7.955l-4.441-4.542c-1.963-2-2.3-3.123-2.3-5.83" transform="translate(0 -301.921)"/><path class="a" d="M5.205,20.973c3.791,0,4.832-1.653,4.832-4.667V14.8c0-2.262-.578-3.85-2.547-4.458,1.969-.582,2.547-2.154,2.547-4.445V4.619C10.038,1.632,9-.019,5.205-.019H2.05A.559.559,0,0,0,1.412.59V20.335a.581.581,0,0,0,.638.638ZM3.845,18.944v-7.6H5.205c1.967,0,2.4,1.014,2.4,2.638v2.32c0,1.651-.434,2.638-2.4,2.638Zm0-9.628V2.01H5.205c1.967,0,2.4.985,2.4,2.609V6.707c0,1.653-.434,2.609-2.4,2.609ZM14.531.59a.559.559,0,0,0-.638-.609H12.736A.559.559,0,0,0,12.1.59V20.335a.581.581,0,0,0,.638.638h1.157a.581.581,0,0,0,.638-.638Zm4.881,0a.559.559,0,0,0-.638-.609H17.616a.559.559,0,0,0-.638.609V20.335a.581.581,0,0,0,.638.638h1.157a.581.581,0,0,0,.638-.638V11.723h.045l4.206,8.845a.627.627,0,0,0,.638.405h1.332a.548.548,0,0,0,.461-.812l-4.631-9.684L26.093.793a.548.548,0,0,0-.461-.812H24.3a.627.627,0,0,0-.638.405L19.456,9.231h-.045Zm8.757-.609a.557.557,0,0,0-.636.609V20.335a.579.579,0,0,0,.636.638H34.71a.581.581,0,0,0,.638-.638v-.783a.56.56,0,0,0-.638-.609H29.964V11.491h3.648a.578.578,0,0,0,.636-.638V10.07a.558.558,0,0,0-.636-.609H29.964V2.01H34.71a.581.581,0,0,0,.638-.638V.59a.559.559,0,0,0-.638-.609ZM45.728,7.056V4.619c0-2.987-1.014-4.638-4.805-4.638H37.68a.557.557,0,0,0-.636.609V20.335a.579.579,0,0,0,.636.638h1.157a.58.58,0,0,0,.638-.638V11.694H40.6l2.979,8.844a.583.583,0,0,0,.636.434h1.3a.556.556,0,0,0,.492-.812L43.065,11.4c2.113-.521,2.663-2.029,2.663-4.348M39.475,9.665V2.01h1.448c1.967,0,2.4.985,2.4,2.609V7.056c0,1.651-.434,2.609-2.4,2.609Z" transform="translate(-0.998 0)"/><path class="a" d="M687.939.135H643s-5.164,0-5.164,5.173V45.27c.258-.4.516-.814.771-1.283,1.1-2.024,1.617-4.229,2.605-7.93,3.212-12.031,12.888-11.355,25.031-12.392,8.848-.754,20.8-4.452,21.866-16.458,0,0,1.023,10.029-5.962,15.2-6.815,5.047-12.909,5.173-21.48,6.117-7.569.785-14.146,1.758-16.429,9.32-1.407,4.663-3.76,8.172-6.4,10.135v2.338s0,5.173,5.164,5.173h44.934s5.164,0,5.164-5.173V5.308S693.1.135,687.939.135ZM640.2,50.289c-.841-2.347,1.328-4.945,1.328-4.945s-.99,5.338,2.7,7.3A3.863,3.863,0,0,1,640.2,50.289Zm4.1.455c-2.766-2.084-1.785-7.3-1.785-7.3a11.334,11.334,0,0,0,3.927,5.373,18.961,18.961,0,0,0,6.333,2.665S647.242,52.964,644.3,50.745Zm12.413-.609a14.057,14.057,0,0,1-9.835-2.69,7.616,7.616,0,0,1-3.568-5.168,56.3,56.3,0,0,1,7.631,3.262A25.609,25.609,0,0,0,662.252,48.5,21.485,21.485,0,0,1,656.708,50.136Zm-1.4-4.6c-6.1-2.438-8.672-4.065-11.678-4.39a15.446,15.446,0,0,1,5.627-.878c3.15.1,6.309.9,10.944,2.522,3.46,1.343,9.616,1.628,12.677.49C672.876,43.278,666.264,49.816,655.307,45.534Zm3.981-5.255c-9.759-2.084-14.948-.647-14.948-.647a16.137,16.137,0,0,1,11.3-3.729c6.964.419,19.453,3.439,25.189-.471C677.152,40.518,673.382,43.367,659.288,40.28Zm24.384-10.339c-6.662,5.931-16.916,4.572-24.685,4.163a23.255,23.255,0,0,0-14.014,3.619s1.262-3.84,6.883-5.792c6.379-2.208,9.217-.812,20.771-2.066,13.171-1.217,15.448-9.129,15.448-9.129S688.836,25.13,683.672,29.941Z" transform="translate(-589.127 -0.142)"/></g></svg>